<?xml version="1.0" encoding="UTF-8"?>
<svg width="630px" height="154px" viewBox="0 0 630 154" version="1.1" xmlns="http://www.w3.org/2000/svg" xmlns:xlink="http://www.w3.org/1999/xlink">
    <!-- Generator: Sketch 52.1 (67048) - http://www.bohemiancoding.com/sketch -->
    <title>oakwood_logo_white</title>
    <desc>Created with Sketch.</desc>
    <g id="oakwood_logo_white" stroke="none" stroke-width="1" fill="none" fill-rule="evenodd">
        <g id="Group" transform="translate(5.000000, 16.000000)">
            <path d="M577.061031,9.98457637 C577.061031,4.47024711 581.531279,0 587.045608,0 C592.559937,0 597.030184,4.47024711 597.030184,9.98457637 L597.030184,78.3947726 C597.050686,78.9273144 597.061031,79.4624491 597.061031,80 C597.061031,102.643675 578.704706,121 556.061031,121 C533.417357,121 515.061031,102.643675 515.061031,80 C515.061031,57.3563253 533.417357,39 556.061031,39 C563.502393,39 571.076272,40.6465447 577.061031,48.5433078 C577.250086,48.6522129 576.873893,44.6672292 577.061031,44.7790481 L577.061031,9.98457637 Z M556.061031,101 C567.659011,101 577.061031,91.5979797 577.061031,80 C577.061031,68.4020203 567.659011,59 556.061031,59 C544.463052,59 535.061031,68.4020203 535.061031,80 C535.061031,91.5979797 544.463052,101 556.061031,101 Z M470.061031,121 C447.417357,121 429.061031,102.643675 429.061031,80 C429.061031,57.3563253 447.417357,39 470.061031,39 C492.704706,39 511.061031,57.3563253 511.061031,80 C511.061031,102.643675 492.704706,121 470.061031,121 Z M470.061031,101 C481.659011,101 491.061031,91.5979797 491.061031,80 C491.061031,68.4020203 481.659011,59 470.061031,59 C458.463052,59 449.061031,68.4020203 449.061031,80 C449.061031,91.5979797 458.463052,101 470.061031,101 Z M384.061031,121 C361.417357,121 343.061031,102.643675 343.061031,80 C343.061031,57.3563253 361.417357,39 384.061031,39 C406.704706,39 425.061031,57.3563253 425.061031,80 C425.061031,102.643675 406.704706,121 384.061031,121 Z M384.061031,101 C395.659011,101 405.061031,91.5979797 405.061031,80 C405.061031,68.4020203 395.659011,59 384.061031,59 C372.463052,59 363.061031,68.4020203 363.061031,80 C363.061031,91.5979797 372.463052,101 384.061031,101 Z M325.386909,49.375208 C327.094612,44.4930749 332.684432,41.8250792 337.892303,43.4064406 C337.906289,43.4106877 337.920266,43.4149641 337.934232,43.4192699 C343.104526,45.0132532 345.919493,50.2403613 344.221637,55.0943428 L323.878002,113.254531 C322.487512,117.229788 318.523191,119.73708 314.286964,119.677709 C310.050737,119.73708 306.086416,117.229788 304.695926,113.254531 L293.286964,80.6375781 L281.878002,113.254531 C280.432928,117.385838 276.207984,119.931666 271.786964,119.658785 C267.365943,119.931666 263.141,117.385838 261.695926,113.254531 L241.352291,55.0943428 C239.654435,50.2403613 242.469402,45.0132532 247.639695,43.4192699 C247.653662,43.4149641 247.667638,43.4106877 247.681625,43.4064406 C252.889496,41.8250792 258.479316,44.4930749 260.187019,49.375208 L271.786964,82.5381597 L283.386909,49.375208 C284.81116,45.3034308 288.935746,42.7717693 293.286964,42.9609097 C297.638182,42.7717693 301.762767,45.3034308 303.187019,49.375208 L314.286964,81.1087153 L325.386909,49.375208 Z M195.061031,111 C195.061031,116.522847 190.583879,121 185.061031,121 C179.538184,121 175.061031,116.522847 175.061031,111 L175.061031,10 C175.061031,4.4771525 179.538184,0 185.061031,0 C190.583879,0 195.061031,4.4771525 195.061031,10 L195.061031,69.9619408 L219.234635,46.3406863 C223.139878,42.4354434 230.462394,40.9028226 234.367637,44.8080655 C238.27288,48.7133084 237.086727,55.1561961 233.181484,59.061439 L214.789522,78.5177216 L235.845893,104.520174 C239.321533,108.812232 238.659695,115.109197 234.367637,118.584837 C230.075578,122.060478 223.778614,121.39864 220.302973,117.106582 L195.061031,85.9353794 L195.061031,111 Z M168.061031,83 L168.061031,112 C168.061031,117.522847 163.583879,122 158.061031,122 C153.872318,122 148.061031,118.67874 148.061031,112 C143.750393,118.371245 134.900411,122 127.061031,122 C104.417357,122 86.0610314,103.643675 86.0610314,81 C86.0610314,58.3563253 104.417357,40 127.061031,40 C149.704706,40 168.061031,58.3563253 168.061031,81 C168.061031,81.4482092 168.053839,81.8947385 168.039564,82.339479 C168.053801,82.5578156 168.061031,82.7780635 168.061031,83 Z M127.061031,102 C138.659011,102 148.061031,92.5979797 148.061031,81 C148.061031,69.4020203 138.659011,60 127.061031,60 C115.463052,60 106.061031,69.4020203 106.061031,81 C106.061031,92.5979797 115.463052,102 127.061031,102 Z M41,122 C18.3563253,122 0,103.643675 0,81 C0,58.3563253 18.3563253,40 41,40 C63.6436747,40 82,58.3563253 82,81 C82,103.643675 63.6436747,122 41,122 Z M41,102 C52.5979797,102 62,92.5979797 62,81 C62,69.4020203 52.5979797,60 41,60 C29.4020203,60 20,69.4020203 20,81 C20,92.5979797 29.4020203,102 41,102 Z" id="Combined-Shape" fill="#FFFFFF"></path>
            <circle id="dot" fill="#E54242" cx="610.5" cy="112.5" r="9.5"></circle>
        </g>
    </g>
</svg>